solid Untitled-5ec37126
facet normal 6.164590767448518e-16 -7.246719491449113e-16 -1.0
  outer loop
    vertex 0.0 9.999999999999948 52.99999999999998
    vertex 3.5857864376267568 8.414213562373098 52.99999999999998
    vertex 0.0 4.999999999999946 52.99999999999998
  endloop
endfacet
facet normal 6.164590767448518e-16 -7.246719491449113e-16 -1.0
  outer loop
    vertex 3.5857864376267568 8.414213562373098 52.99999999999998
    vertex 0.0 9.999999999999948 52.99999999999998
    vertex 3.999999999999812 8.7320508075689 52.99999999999998
  endloop
endfacet
facet normal 6.164590767448518e-16 -7.246719491449113e-16 -1.0
  outer loop
    vertex 3.999999999999812 8.7320508075689 52.99999999999998
    vertex 0.0 9.999999999999948 52.99999999999998
    vertex 4.482361909794878 8.931851652578166 52.99999999999998
  endloop
endfacet
facet normal 6.164590767448518e-16 -7.246719491449113e-16 -1.0
  outer loop
    vertex 4.482361909794878 8.931851652578166 52.99999999999998
    vertex 0.0 9.999999999999948 52.99999999999998
    vertex 9.999999999999892 9.999999999999948 52.99999999999998
  endloop
endfacet
facet normal 6.164590767448518e-16 -7.246719491449113e-16 -1.0
  outer loop
    vertex 0.0 4.999999999999946 52.99999999999998
    vertex 3.5857864376267568 8.414213562373098 52.99999999999998
    vertex 3.2679491924309882 7.999999999999985 52.99999999999998
  endloop
endfacet
facet normal 6.164590767448518e-16 -7.246719491449113e-16 -1.0
  outer loop
    vertex 0.0 4.999999999999946 52.99999999999998
    vertex 3.2679491924309882 7.999999999999985 52.99999999999998
    vertex 0.1703708685546644 3.7059047744873546 52.99999999999998
  endloop
endfacet
facet normal 6.164590767448518e-16 -7.246719491449113e-16 -1.0
  outer loop
    vertex 0.1703708685546644 3.7059047744873546 52.99999999999998
    vertex 3.2679491924309882 7.999999999999985 52.99999999999998
    vertex 0.6698729810778232 2.499999999999973 52.99999999999998
  endloop
endfacet
facet normal 6.164590767448518e-16 -7.246719491449113e-16 -1.0
  outer loop
    vertex 0.6698729810778232 2.499999999999973 52.99999999999998
    vertex 3.2679491924309882 7.999999999999985 52.99999999999998
    vertex 3.0681483474216886 7.51763809020501 52.99999999999998
  endloop
endfacet
facet normal 6.164590767448518e-16 -7.246719491449113e-16 -1.0
  outer loop
    vertex 0.6698729810778232 2.499999999999973 52.99999999999998
    vertex 3.0681483474216886 7.51763809020501 52.99999999999998
    vertex 1.4644660940673346 1.4644660940672445 52.99999999999998
  endloop
endfacet
facet normal 6.164590767448518e-16 -7.246719491449113e-16 -1.0
  outer loop
    vertex 1.4644660940673346 1.4644660940672445 52.99999999999998
    vertex 3.0681483474216886 7.51763809020501 52.99999999999998
    vertex 2.9999999999998592 6.999999999999942 52.99999999999998
  endloop
endfacet
facet normal 6.164590767448518e-16 -7.246719491449113e-16 -1.0
  outer loop
    vertex 1.4644660940673346 1.4644660940672445 52.99999999999998
    vertex 2.9999999999998592 6.999999999999942 52.99999999999998
    vertex 2.499999999999973 0.6698729810778006 52.99999999999998
  endloop
endfacet
facet normal 6.164590767448518e-16 -7.246719491449113e-16 -1.0
  outer loop
    vertex 4.482361909794878 8.931851652578166 52.99999999999998
    vertex 9.999999999999892 9.999999999999948 52.99999999999998
    vertex 4.999999999999946 9.000000000000028 52.99999999999998
  endloop
endfacet
facet normal 6.164590767448518e-16 -7.246719491449113e-16 -1.0
  outer loop
    vertex 4.999999999999946 9.000000000000028 52.99999999999998
    vertex 9.999999999999892 9.999999999999948 52.99999999999998
    vertex 5.517638090205014 8.931851652578166 52.99999999999998
  endloop
endfacet
facet normal 6.164590767448518e-16 -7.246719491449113e-16 -1.0
  outer loop
    vertex 5.517638090205014 8.931851652578166 52.99999999999998
    vertex 9.999999999999892 9.999999999999948 52.99999999999998
    vertex 5.999999999999899 8.7320508075689 52.99999999999998
  endloop
endfacet
facet normal 6.164590767448518e-16 -7.246719491449113e-16 -1.0
  outer loop
    vertex 5.999999999999899 8.7320508075689 52.99999999999998
    vertex 9.999999999999892 9.999999999999948 52.99999999999998
    vertex 6.414213562373135 8.414213562373098 52.99999999999998
  endloop
endfacet
facet normal 6.164590767448518e-16 -7.246719491449113e-16 -1.0
  outer loop
    vertex 6.414213562373135 8.414213562373098 52.99999999999998
    vertex 9.999999999999892 9.999999999999948 52.99999999999998
    vertex 6.732050807568903 7.999999999999985 52.99999999999998
  endloop
endfacet
facet normal 6.164590767448518e-16 -7.246719491449113e-16 -1.0
  outer loop
    vertex 6.732050807568903 7.999999999999985 52.99999999999998
    vertex 9.999999999999892 9.999999999999948 52.99999999999998
    vertex 6.931851652578203 7.51763809020501 52.99999999999998
  endloop
endfacet
facet normal 6.164590767448518e-16 -7.246719491449113e-16 -1.0
  outer loop
    vertex 6.931851652578203 7.51763809020501 52.99999999999998
    vertex 9.999999999999892 9.999999999999948 52.99999999999998
    vertex 7.000000000000032 6.999999999999942 52.99999999999998
  endloop
endfacet
facet normal 6.164590767448518e-16 -7.246719491449113e-16 -1.0
  outer loop
    vertex 7.000000000000032 6.999999999999942 52.99999999999998
    vertex 9.999999999999892 9.999999999999948 52.99999999999998
    vertex 7.000000000000032 4.999999999999946 52.99999999999998
  endloop
endfacet
facet normal 6.164590767448518e-16 -7.246719491449113e-16 -1.0
  outer loop
    vertex 7.000000000000032 4.999999999999946 52.99999999999998
    vertex 9.999999999999892 9.999999999999948 52.99999999999998
    vertex 7.499999999999918 0.6698729810778006 52.99999999999998
  endloop
endfacet
facet normal 6.164590767448518e-16 -7.246719491449113e-16 -1.0
  outer loop
    vertex 7.499999999999918 0.6698729810778006 52.99999999999998
    vertex 9.999999999999892 9.999999999999948 52.99999999999998
    vertex 8.535533905932557 1.4644660940672445 52.99999999999998
  endloop
endfacet
facet normal 6.164590767448518e-16 -7.246719491449113e-16 -1.0
  outer loop
    vertex 8.535533905932557 1.4644660940672445 52.99999999999998
    vertex 9.999999999999892 9.999999999999948 52.99999999999998
    vertex 9.330127018922068 2.499999999999973 52.99999999999998
  endloop
endfacet
facet normal 6.164590767448518e-16 -7.246719491449113e-16 -1.0
  outer loop
    vertex 9.330127018922068 2.499999999999973 52.99999999999998
    vertex 9.999999999999892 9.999999999999948 52.99999999999998
    vertex 9.829629131445227 3.7059047744873546 52.99999999999998
  endloop
endfacet
facet normal 6.164590767448518e-16 -7.246719491449113e-16 -1.0
  outer loop
    vertex 9.829629131445227 3.7059047744873546 52.99999999999998
    vertex 9.999999999999892 9.999999999999948 52.99999999999998
    vertex 9.999999999999892 4.999999999999946 52.99999999999998
  endloop
endfacet
facet normal 6.164590767448518e-16 -7.246719491449113e-16 -1.0
  outer loop
    vertex 2.499999999999973 0.6698729810778006 52.99999999999998
    vertex 3.0681483474216886 4.482361909794878 52.99999999999998
    vertex 3.7059047744872755 0.1703708685546531 52.99999999999998
  endloop
endfacet
facet normal 6.164590767448518e-16 -7.246719491449113e-16 -1.0
  outer loop
    vertex 3.0681483474216886 4.482361909794878 52.99999999999998
    vertex 2.499999999999973 0.6698729810778006 52.99999999999998
    vertex 2.9999999999998592 4.999999999999946 52.99999999999998
  endloop
endfacet
facet normal 6.164590767448518e-16 -7.246719491449113e-16 -1.0
  outer loop
    vertex 2.9999999999998592 4.999999999999946 52.99999999999998
    vertex 2.499999999999973 0.6698729810778006 52.99999999999998
    vertex 2.9999999999998592 6.999999999999942 52.99999999999998
  endloop
endfacet
facet normal 6.164590767448518e-16 -7.246719491449113e-16 -1.0
  outer loop
    vertex 3.7059047744872755 0.1703708685546531 52.99999999999998
    vertex 3.0681483474216886 4.482361909794878 52.99999999999998
    vertex 3.2679491924309882 3.9999999999999023 52.99999999999998
  endloop
endfacet
facet normal 6.164590767448518e-16 -7.246719491449113e-16 -1.0
  outer loop
    vertex 3.7059047744872755 0.1703708685546531 52.99999999999998
    vertex 3.2679491924309882 3.9999999999999023 52.99999999999998
    vertex 3.5857864376267568 3.585786437626791 52.99999999999998
  endloop
endfacet
facet normal 6.164590767448518e-16 -7.246719491449113e-16 -1.0
  outer loop
    vertex 3.7059047744872755 0.1703708685546531 52.99999999999998
    vertex 3.5857864376267568 3.585786437626791 52.99999999999998
    vertex 3.9999999999999925 3.2679491924309882 52.99999999999998
  endloop
endfacet
facet normal 6.164590767448518e-16 -7.246719491449113e-16 -1.0
  outer loop
    vertex 3.7059047744872755 0.1703708685546531 52.99999999999998
    vertex 3.9999999999999925 3.2679491924309882 52.99999999999998
    vertex 4.999999999999946 0.0 52.99999999999998
  endloop
endfacet
facet normal 6.164590767448518e-16 -7.246719491449113e-16 -1.0
  outer loop
    vertex 4.999999999999946 0.0 52.99999999999998
    vertex 3.9999999999999925 3.2679491924309882 52.99999999999998
    vertex 4.482361909794878 3.068148347421723 52.99999999999998
  endloop
endfacet
facet normal 6.164590767448518e-16 -7.246719491449113e-16 -1.0
  outer loop
    vertex 4.999999999999946 0.0 52.99999999999998
    vertex 4.482361909794878 3.068148347421723 52.99999999999998
    vertex 4.999999999999946 2.9999999999998592 52.99999999999998
  endloop
endfacet
facet normal 6.164590767448518e-16 -7.246719491449113e-16 -1.0
  outer loop
    vertex 4.999999999999946 0.0 52.99999999999998
    vertex 4.999999999999946 2.9999999999998592 52.99999999999998
    vertex 5.517638090205014 3.068148347421723 52.99999999999998
  endloop
endfacet
facet normal 6.164590767448518e-16 -7.246719491449113e-16 -1.0
  outer loop
    vertex 4.999999999999946 0.0 52.99999999999998
    vertex 5.517638090205014 3.068148347421723 52.99999999999998
    vertex 6.294095225512616 0.1703708685546531 52.99999999999998
  endloop
endfacet
facet normal 6.164590767448518e-16 -7.246719491449113e-16 -1.0
  outer loop
    vertex 6.294095225512616 0.1703708685546531 52.99999999999998
    vertex 5.517638090205014 3.068148347421723 52.99999999999998
    vertex 6.000000000000079 3.2679491924309882 52.99999999999998
  endloop
endfacet
facet normal 6.164590767448518e-16 -7.246719491449113e-16 -1.0
  outer loop
    vertex 6.294095225512616 0.1703708685546531 52.99999999999998
    vertex 6.000000000000079 3.2679491924309882 52.99999999999998
    vertex 6.414213562373135 3.585786437626791 52.99999999999998
  endloop
endfacet
facet normal 6.164590767448518e-16 -7.246719491449113e-16 -1.0
  outer loop
    vertex 6.294095225512616 0.1703708685546531 52.99999999999998
    vertex 6.414213562373135 3.585786437626791 52.99999999999998
    vertex 7.499999999999918 0.6698729810778006 52.99999999999998
  endloop
endfacet
facet normal 6.164590767448518e-16 -7.246719491449113e-16 -1.0
  outer loop
    vertex 7.499999999999918 0.6698729810778006 52.99999999999998
    vertex 6.414213562373135 3.585786437626791 52.99999999999998
    vertex 6.732050807568903 3.9999999999999023 52.99999999999998
  endloop
endfacet
facet normal 6.164590767448518e-16 -7.246719491449113e-16 -1.0
  outer loop
    vertex 7.499999999999918 0.6698729810778006 52.99999999999998
    vertex 6.732050807568903 3.9999999999999023 52.99999999999998
    vertex 6.931851652578203 4.482361909794878 52.99999999999998
  endloop
endfacet
facet normal 6.164590767448518e-16 -7.246719491449113e-16 -1.0
  outer loop
    vertex 7.499999999999918 0.6698729810778006 52.99999999999998
    vertex 6.931851652578203 4.482361909794878 52.99999999999998
    vertex 7.000000000000032 4.999999999999946 52.99999999999998
  endloop
endfacet
facet normal -0.9914448613738098 -0.13052619222005724 -0.0
  outer loop
    vertex 0.0 4.999999999999946 55.9999999999999
    vertex 0.1703708685546644 3.7059047744873546 52.99999999999998
    vertex 0.1703708685546644 3.7059047744873546 55.9999999999999
  endloop
endfacet
facet normal -0.9914448613738098 -0.13052619222005724 -0.0
  outer loop
    vertex 0.1703708685546644 3.7059047744873546 52.99999999999998
    vertex 0.0 4.999999999999946 55.9999999999999
    vertex 0.0 4.999999999999946 52.99999999999998
  endloop
endfacet
facet normal 0.13052619222004516 0.9914448613738113 0.0
  outer loop
    vertex 4.482361909794878 3.068148347421723 55.9999999999999
    vertex 4.999999999999946 2.9999999999998592 52.99999999999998
    vertex 4.482361909794878 3.068148347421723 52.99999999999998
  endloop
endfacet
facet normal 0.13052619222004516 0.9914448613738113 0.0
  outer loop
    vertex 4.999999999999946 2.9999999999998592 52.99999999999998
    vertex 4.482361909794878 3.068148347421723 55.9999999999999
    vertex 4.999999999999946 2.9999999999998592 55.9999999999999
  endloop
endfacet
facet normal 0.9238795325112824 -0.3826834323651008 0.0
  outer loop
    vertex 9.829629131445227 3.7059047744873546 52.99999999999998
    vertex 9.330127018922068 2.499999999999973 55.9999999999999
    vertex 9.330127018922068 2.499999999999973 52.99999999999998
  endloop
endfacet
facet normal 0.9238795325112824 -0.3826834323651008 0.0
  outer loop
    vertex 9.330127018922068 2.499999999999973 55.9999999999999
    vertex 9.829629131445227 3.7059047744873546 52.99999999999998
    vertex 9.829629131445227 3.7059047744873546 55.9999999999999
  endloop
endfacet
facet normal -0.38268343236515023 -0.9238795325112619 -0.0
  outer loop
    vertex 5.999999999999899 8.7320508075689 55.9999999999999
    vertex 5.517638090205014 8.931851652578166 52.99999999999998
    vertex 5.999999999999899 8.7320508075689 52.99999999999998
  endloop
endfacet
facet normal -0.38268343236515023 -0.9238795325112619 -0.0
  outer loop
    vertex 5.517638090205014 8.931851652578166 52.99999999999998
    vertex 5.999999999999899 8.7320508075689 55.9999999999999
    vertex 5.517638090205014 8.931851652578166 55.9999999999999
  endloop
endfacet
facet normal -1.0 0.0 0.0
  outer loop
    vertex 7.000000000000032 6.999999999999942 55.9999999999999
    vertex 7.000000000000032 4.999999999999946 52.99999999999998
    vertex 7.000000000000032 4.999999999999946 55.9999999999999
  endloop
endfacet
facet normal -1.0 0.0 0.0
  outer loop
    vertex 7.000000000000032 4.999999999999946 52.99999999999998
    vertex 7.000000000000032 6.999999999999942 55.9999999999999
    vertex 7.000000000000032 6.999999999999942 52.99999999999998
  endloop
endfacet
facet normal 0.9238795325112642 0.3826834323651444 0.0
  outer loop
    vertex 3.0681483474216886 4.482361909794878 52.99999999999998
    vertex 3.2679491924309882 3.9999999999999023 55.9999999999999
    vertex 3.2679491924309882 3.9999999999999023 52.99999999999998
  endloop
endfacet
facet normal 0.9238795325112642 0.3826834323651444 0.0
  outer loop
    vertex 3.2679491924309882 3.9999999999999023 55.9999999999999
    vertex 3.0681483474216886 4.482361909794878 52.99999999999998
    vertex 3.0681483474216886 4.482361909794878 55.9999999999999
  endloop
endfacet
facet normal -0.9914448613738197 0.13052619221998144 0.0
  outer loop
    vertex 7.000000000000032 4.999999999999946 55.9999999999999
    vertex 6.931851652578203 4.482361909794878 52.99999999999998
    vertex 6.931851652578203 4.482361909794878 55.9999999999999
  endloop
endfacet
facet normal -0.9914448613738197 0.13052619221998144 0.0
  outer loop
    vertex 6.931851652578203 4.482361909794878 52.99999999999998
    vertex 7.000000000000032 4.999999999999946 55.9999999999999
    vertex 7.000000000000032 4.999999999999946 52.99999999999998
  endloop
endfacet
facet normal -0.9238795325112642 -0.3826834323651444 -0.0
  outer loop
    vertex 6.732050807568903 7.999999999999985 55.9999999999999
    vertex 6.931851652578203 7.51763809020501 52.99999999999998
    vertex 6.931851652578203 7.51763809020501 55.9999999999999
  endloop
endfacet
facet normal -0.9238795325112642 -0.3826834323651444 -0.0
  outer loop
    vertex 6.931851652578203 7.51763809020501 52.99999999999998
    vertex 6.732050807568903 7.999999999999985 55.9999999999999
    vertex 6.732050807568903 7.999999999999985 52.99999999999998
  endloop
endfacet
facet normal 0.7933533402912597 0.6087614290086887 0.0
  outer loop
    vertex 3.2679491924309882 3.9999999999999023 52.99999999999998
    vertex 3.5857864376267568 3.585786437626791 55.9999999999999
    vertex 3.5857864376267568 3.585786437626791 52.99999999999998
  endloop
endfacet
facet normal 0.7933533402912597 0.6087614290086887 0.0
  outer loop
    vertex 3.5857864376267568 3.585786437626791 55.9999999999999
    vertex 3.2679491924309882 3.9999999999999023 52.99999999999998
    vertex 3.2679491924309882 3.9999999999999023 55.9999999999999
  endloop
endfacet
facet normal 0.13052619222004092 -0.9914448613738118 0.0
  outer loop
    vertex 6.294095225512616 0.1703708685546531 55.9999999999999
    vertex 4.999999999999946 0.0 52.99999999999998
    vertex 6.294095225512616 0.1703708685546531 52.99999999999998
  endloop
endfacet
facet normal 0.13052619222004092 -0.9914448613738118 0.0
  outer loop
    vertex 4.999999999999946 0.0 52.99999999999998
    vertex 6.294095225512616 0.1703708685546531 55.9999999999999
    vertex 4.999999999999946 0.0 55.9999999999999
  endloop
endfacet
facet normal 0.38268343236515023 0.9238795325112619 0.0
  outer loop
    vertex 3.9999999999999925 3.2679491924309882 55.9999999999999
    vertex 4.482361909794878 3.068148347421723 52.99999999999998
    vertex 3.9999999999999925 3.2679491924309882 52.99999999999998
  endloop
endfacet
facet normal 0.38268343236515023 0.9238795325112619 0.0
  outer loop
    vertex 4.482361909794878 3.068148347421723 52.99999999999998
    vertex 3.9999999999999925 3.2679491924309882 55.9999999999999
    vertex 4.482361909794878 3.068148347421723 55.9999999999999
  endloop
endfacet
facet normal 0.6087614290087816 -0.7933533402911884 0.0
  outer loop
    vertex 3.999999999999812 8.7320508075689 55.9999999999999
    vertex 3.5857864376267568 8.414213562373098 52.99999999999998
    vertex 3.999999999999812 8.7320508075689 52.99999999999998
  endloop
endfacet
facet normal 0.6087614290087816 -0.7933533402911884 0.0
  outer loop
    vertex 3.5857864376267568 8.414213562373098 52.99999999999998
    vertex 3.999999999999812 8.7320508075689 55.9999999999999
    vertex 3.5857864376267568 8.414213562373098 55.9999999999999
  endloop
endfacet
facet normal 0.38268343236511476 -0.9238795325112766 0.0
  outer loop
    vertex 7.499999999999918 0.6698729810778006 55.9999999999999
    vertex 6.294095225512616 0.1703708685546531 52.99999999999998
    vertex 7.499999999999918 0.6698729810778006 52.99999999999998
  endloop
endfacet
facet normal 0.38268343236511476 -0.9238795325112766 0.0
  outer loop
    vertex 6.294095225512616 0.1703708685546531 52.99999999999998
    vertex 7.499999999999918 0.6698729810778006 55.9999999999999
    vertex 6.294095225512616 0.1703708685546531 55.9999999999999
  endloop
endfacet
facet normal -0.38268343236511476 -0.9238795325112766 -0.0
  outer loop
    vertex 3.7059047744872755 0.1703708685546531 55.9999999999999
    vertex 2.499999999999973 0.6698729810778006 52.99999999999998
    vertex 3.7059047744872755 0.1703708685546531 52.99999999999998
  endloop
endfacet
facet normal -0.38268343236511476 -0.9238795325112766 -0.0
  outer loop
    vertex 2.499999999999973 0.6698729810778006 52.99999999999998
    vertex 3.7059047744872755 0.1703708685546531 55.9999999999999
    vertex 2.499999999999973 0.6698729810778006 55.9999999999999
  endloop
endfacet
facet normal 0.13052619222004516 -0.9914448613738113 0.0
  outer loop
    vertex 4.999999999999946 9.000000000000028 55.9999999999999
    vertex 4.482361909794878 8.931851652578166 52.99999999999998
    vertex 4.999999999999946 9.000000000000028 52.99999999999998
  endloop
endfacet
facet normal 0.13052619222004516 -0.9914448613738113 0.0
  outer loop
    vertex 4.482361909794878 8.931851652578166 52.99999999999998
    vertex 4.999999999999946 9.000000000000028 55.9999999999999
    vertex 4.482361909794878 8.931851652578166 55.9999999999999
  endloop
endfacet
facet normal 0.9238795325112642 -0.3826834323651444 0.0
  outer loop
    vertex 3.2679491924309882 7.999999999999985 52.99999999999998
    vertex 3.0681483474216886 7.51763809020501 55.9999999999999
    vertex 3.0681483474216886 7.51763809020501 52.99999999999998
  endloop
endfacet
facet normal 0.9238795325112642 -0.3826834323651444 0.0
  outer loop
    vertex 3.0681483474216886 7.51763809020501 55.9999999999999
    vertex 3.2679491924309882 7.999999999999985 52.99999999999998
    vertex 3.2679491924309882 7.999999999999985 55.9999999999999
  endloop
endfacet
facet normal 0.9914448613738098 -0.13052619222005724 0.0
  outer loop
    vertex 9.999999999999892 4.999999999999946 52.99999999999998
    vertex 9.829629131445227 3.7059047744873546 55.9999999999999
    vertex 9.829629131445227 3.7059047744873546 52.99999999999998
  endloop
endfacet
facet normal 0.9914448613738098 -0.13052619222005724 0.0
  outer loop
    vertex 9.829629131445227 3.7059047744873546 55.9999999999999
    vertex 9.999999999999892 4.999999999999946 52.99999999999998
    vertex 9.999999999999892 4.999999999999946 55.9999999999999
  endloop
endfacet
facet normal 0.793353340291212 -0.608761429008751 0.0
  outer loop
    vertex 9.330127018922068 2.499999999999973 52.99999999999998
    vertex 8.535533905932557 1.4644660940672445 55.9999999999999
    vertex 8.535533905932557 1.4644660940672445 52.99999999999998
  endloop
endfacet
facet normal 0.793353340291212 -0.608761429008751 0.0
  outer loop
    vertex 8.535533905932557 1.4644660940672445 55.9999999999999
    vertex 9.330127018922068 2.499999999999973 52.99999999999998
    vertex 9.330127018922068 2.499999999999973 55.9999999999999
  endloop
endfacet
facet normal -0.6087614290087517 -0.7933533402912114 -0.0
  outer loop
    vertex 2.499999999999973 0.6698729810778006 55.9999999999999
    vertex 1.4644660940673346 1.4644660940672445 52.99999999999998
    vertex 2.499999999999973 0.6698729810778006 52.99999999999998
  endloop
endfacet
facet normal -0.6087614290087517 -0.7933533402912114 -0.0
  outer loop
    vertex 1.4644660940673346 1.4644660940672445 52.99999999999998
    vertex 2.499999999999973 0.6698729810778006 55.9999999999999
    vertex 1.4644660940673346 1.4644660940672445 55.9999999999999
  endloop
endfacet
facet normal 0.9914448613738197 -0.13052619221998144 0.0
  outer loop
    vertex 3.0681483474216886 7.51763809020501 52.99999999999998
    vertex 2.9999999999998592 6.999999999999942 55.9999999999999
    vertex 2.9999999999998592 6.999999999999942 52.99999999999998
  endloop
endfacet
facet normal 0.9914448613738197 -0.13052619221998144 0.0
  outer loop
    vertex 2.9999999999998592 6.999999999999942 55.9999999999999
    vertex 3.0681483474216886 7.51763809020501 52.99999999999998
    vertex 3.0681483474216886 7.51763809020501 55.9999999999999
  endloop
endfacet
facet normal -0.793353340291212 -0.608761429008751 -0.0
  outer loop
    vertex 0.6698729810778232 2.499999999999973 55.9999999999999
    vertex 1.4644660940673346 1.4644660940672445 52.99999999999998
    vertex 1.4644660940673346 1.4644660940672445 55.9999999999999
  endloop
endfacet
facet normal -0.793353340291212 -0.608761429008751 -0.0
  outer loop
    vertex 1.4644660940673346 1.4644660940672445 52.99999999999998
    vertex 0.6698729810778232 2.499999999999973 55.9999999999999
    vertex 0.6698729810778232 2.499999999999973 52.99999999999998
  endloop
endfacet
facet normal -0.7933533402912597 -0.6087614290086887 -0.0
  outer loop
    vertex 6.414213562373135 8.414213562373098 55.9999999999999
    vertex 6.732050807568903 7.999999999999985 52.99999999999998
    vertex 6.732050807568903 7.999999999999985 55.9999999999999
  endloop
endfacet
facet normal -0.7933533402912597 -0.6087614290086887 -0.0
  outer loop
    vertex 6.732050807568903 7.999999999999985 52.99999999999998
    vertex 6.414213562373135 8.414213562373098 55.9999999999999
    vertex 6.414213562373135 8.414213562373098 52.99999999999998
  endloop
endfacet
facet normal -0.6087614290086146 -0.7933533402913164 -0.0
  outer loop
    vertex 6.414213562373135 8.414213562373098 55.9999999999999
    vertex 5.999999999999899 8.7320508075689 52.99999999999998
    vertex 6.414213562373135 8.414213562373098 52.99999999999998
  endloop
endfacet
facet normal -0.6087614290086146 -0.7933533402913164 -0.0
  outer loop
    vertex 5.999999999999899 8.7320508075689 52.99999999999998
    vertex 6.414213562373135 8.414213562373098 55.9999999999999
    vertex 5.999999999999899 8.7320508075689 55.9999999999999
  endloop
endfacet
facet normal 0.7933533402912597 -0.6087614290086887 0.0
  outer loop
    vertex 3.5857864376267568 8.414213562373098 52.99999999999998
    vertex 3.2679491924309882 7.999999999999985 55.9999999999999
    vertex 3.2679491924309882 7.999999999999985 52.99999999999998
  endloop
endfacet
facet normal 0.7933533402912597 -0.6087614290086887 0.0
  outer loop
    vertex 3.2679491924309882 7.999999999999985 55.9999999999999
    vertex 3.5857864376267568 8.414213562373098 52.99999999999998
    vertex 3.5857864376267568 8.414213562373098 55.9999999999999
  endloop
endfacet
facet normal 0.6087614290087517 -0.7933533402912114 0.0
  outer loop
    vertex 8.535533905932557 1.4644660940672445 55.9999999999999
    vertex 7.499999999999918 0.6698729810778006 52.99999999999998
    vertex 8.535533905932557 1.4644660940672445 52.99999999999998
  endloop
endfacet
facet normal 0.6087614290087517 -0.7933533402912114 0.0
  outer loop
    vertex 7.499999999999918 0.6698729810778006 52.99999999999998
    vertex 8.535533905932557 1.4644660940672445 55.9999999999999
    vertex 7.499999999999918 0.6698729810778006 55.9999999999999
  endloop
endfacet
facet normal -0.9238795325112824 -0.3826834323651008 -0.0
  outer loop
    vertex 0.1703708685546644 3.7059047744873546 55.9999999999999
    vertex 0.6698729810778232 2.499999999999973 52.99999999999998
    vertex 0.6698729810778232 2.499999999999973 55.9999999999999
  endloop
endfacet
facet normal -0.9238795325112824 -0.3826834323651008 -0.0
  outer loop
    vertex 0.6698729810778232 2.499999999999973 52.99999999999998
    vertex 0.1703708685546644 3.7059047744873546 55.9999999999999
    vertex 0.1703708685546644 3.7059047744873546 52.99999999999998
  endloop
endfacet
facet normal 1.0 0.0 0.0
  outer loop
    vertex 2.9999999999998592 6.999999999999942 52.99999999999998
    vertex 2.9999999999998592 4.999999999999946 55.9999999999999
    vertex 2.9999999999998592 4.999999999999946 52.99999999999998
  endloop
endfacet
facet normal 1.0 0.0 0.0
  outer loop
    vertex 2.9999999999998592 4.999999999999946 55.9999999999999
    vertex 2.9999999999998592 6.999999999999942 52.99999999999998
    vertex 2.9999999999998592 6.999999999999942 55.9999999999999
  endloop
endfacet
facet normal -0.9914448613738197 -0.13052619221998144 -0.0
  outer loop
    vertex 6.931851652578203 7.51763809020501 55.9999999999999
    vertex 7.000000000000032 6.999999999999942 52.99999999999998
    vertex 7.000000000000032 6.999999999999942 55.9999999999999
  endloop
endfacet
facet normal -0.9914448613738197 -0.13052619221998144 -0.0
  outer loop
    vertex 7.000000000000032 6.999999999999942 52.99999999999998
    vertex 6.931851652578203 7.51763809020501 55.9999999999999
    vertex 6.931851652578203 7.51763809020501 52.99999999999998
  endloop
endfacet
facet normal 0.9914448613738197 0.13052619221998144 0.0
  outer loop
    vertex 2.9999999999998592 4.999999999999946 52.99999999999998
    vertex 3.0681483474216886 4.482361909794878 55.9999999999999
    vertex 3.0681483474216886 4.482361909794878 52.99999999999998
  endloop
endfacet
facet normal 0.9914448613738197 0.13052619221998144 0.0
  outer loop
    vertex 3.0681483474216886 4.482361909794878 55.9999999999999
    vertex 2.9999999999998592 4.999999999999946 52.99999999999998
    vertex 2.9999999999998592 4.999999999999946 55.9999999999999
  endloop
endfacet
facet normal 0.6087614290086146 0.7933533402913164 0.0
  outer loop
    vertex 3.5857864376267568 3.585786437626791 55.9999999999999
    vertex 3.9999999999999925 3.2679491924309882 52.99999999999998
    vertex 3.5857864376267568 3.585786437626791 52.99999999999998
  endloop
endfacet
facet normal 0.6087614290086146 0.7933533402913164 0.0
  outer loop
    vertex 3.9999999999999925 3.2679491924309882 52.99999999999998
    vertex 3.5857864376267568 3.585786437626791 55.9999999999999
    vertex 3.9999999999999925 3.2679491924309882 55.9999999999999
  endloop
endfacet
facet normal -0.13052619222004516 -0.9914448613738113 -0.0
  outer loop
    vertex 5.517638090205014 8.931851652578166 55.9999999999999
    vertex 4.999999999999946 9.000000000000028 52.99999999999998
    vertex 5.517638090205014 8.931851652578166 52.99999999999998
  endloop
endfacet
facet normal -0.13052619222004516 -0.9914448613738113 -0.0
  outer loop
    vertex 4.999999999999946 9.000000000000028 52.99999999999998
    vertex 5.517638090205014 8.931851652578166 55.9999999999999
    vertex 4.999999999999946 9.000000000000028 55.9999999999999
  endloop
endfacet
facet normal -0.13052619222004092 -0.9914448613738118 -0.0
  outer loop
    vertex 4.999999999999946 0.0 55.9999999999999
    vertex 3.7059047744872755 0.1703708685546531 52.99999999999998
    vertex 4.999999999999946 0.0 52.99999999999998
  endloop
endfacet
facet normal -0.13052619222004092 -0.9914448613738118 -0.0
  outer loop
    vertex 3.7059047744872755 0.1703708685546531 52.99999999999998
    vertex 4.999999999999946 0.0 55.9999999999999
    vertex 3.7059047744872755 0.1703708685546531 55.9999999999999
  endloop
endfacet
facet normal 0.38268343236502794 -0.9238795325113124 0.0
  outer loop
    vertex 4.482361909794878 8.931851652578166 55.9999999999999
    vertex 3.999999999999812 8.7320508075689 52.99999999999998
    vertex 4.482361909794878 8.931851652578166 52.99999999999998
  endloop
endfacet
facet normal 0.38268343236502794 -0.9238795325113124 0.0
  outer loop
    vertex 3.999999999999812 8.7320508075689 52.99999999999998
    vertex 4.482361909794878 8.931851652578166 55.9999999999999
    vertex 3.999999999999812 8.7320508075689 55.9999999999999
  endloop
endfacet
facet normal -0.9238795325112642 0.3826834323651444 0.0
  outer loop
    vertex 6.931851652578203 4.482361909794878 55.9999999999999
    vertex 6.732050807568903 3.9999999999999023 52.99999999999998
    vertex 6.732050807568903 3.9999999999999023 55.9999999999999
  endloop
endfacet
facet normal -0.9238795325112642 0.3826834323651444 0.0
  outer loop
    vertex 6.732050807568903 3.9999999999999023 52.99999999999998
    vertex 6.931851652578203 4.482361909794878 55.9999999999999
    vertex 6.931851652578203 4.482361909794878 52.99999999999998
  endloop
endfacet
facet normal -0.7933533402912597 0.6087614290086887 0.0
  outer loop
    vertex 6.732050807568903 3.9999999999999023 55.9999999999999
    vertex 6.414213562373135 3.585786437626791 52.99999999999998
    vertex 6.414213562373135 3.585786437626791 55.9999999999999
  endloop
endfacet
facet normal -0.7933533402912597 0.6087614290086887 0.0
  outer loop
    vertex 6.414213562373135 3.585786437626791 52.99999999999998
    vertex 6.732050807568903 3.9999999999999023 55.9999999999999
    vertex 6.732050807568903 3.9999999999999023 52.99999999999998
  endloop
endfacet
facet normal -0.6087614290087816 0.7933533402911884 0.0
  outer loop
    vertex 6.000000000000079 3.2679491924309882 55.9999999999999
    vertex 6.414213562373135 3.585786437626791 52.99999999999998
    vertex 6.000000000000079 3.2679491924309882 52.99999999999998
  endloop
endfacet
facet normal -0.6087614290087816 0.7933533402911884 0.0
  outer loop
    vertex 6.414213562373135 3.585786437626791 52.99999999999998
    vertex 6.000000000000079 3.2679491924309882 55.9999999999999
    vertex 6.414213562373135 3.585786437626791 55.9999999999999
  endloop
endfacet
facet normal -0.38268343236502794 0.9238795325113124 0.0
  outer loop
    vertex 5.517638090205014 3.068148347421723 55.9999999999999
    vertex 6.000000000000079 3.2679491924309882 52.99999999999998
    vertex 5.517638090205014 3.068148347421723 52.99999999999998
  endloop
endfacet
facet normal -0.38268343236502794 0.9238795325113124 0.0
  outer loop
    vertex 6.000000000000079 3.2679491924309882 52.99999999999998
    vertex 5.517638090205014 3.068148347421723 55.9999999999999
    vertex 6.000000000000079 3.2679491924309882 55.9999999999999
  endloop
endfacet
facet normal -0.13052619222004516 0.9914448613738113 0.0
  outer loop
    vertex 4.999999999999946 2.9999999999998592 55.9999999999999
    vertex 5.517638090205014 3.068148347421723 52.99999999999998
    vertex 4.999999999999946 2.9999999999998592 52.99999999999998
  endloop
endfacet
facet normal -0.13052619222004516 0.9914448613738113 0.0
  outer loop
    vertex 5.517638090205014 3.068148347421723 52.99999999999998
    vertex 4.999999999999946 2.9999999999998592 55.9999999999999
    vertex 5.517638090205014 3.068148347421723 55.9999999999999
  endloop
endfacet
facet normal 0.0 1.0 0.0
  outer loop
    vertex 2.165734258596785e-12 17.999999999999943 58.99999999999997
    vertex 9.999999999999892 17.999999999999943 2.9999999999999947
    vertex 2.165734258596785e-12 17.999999999999943 2.9999999999999947
  endloop
endfacet
facet normal 0.0 1.0 0.0
  outer loop
    vertex 9.999999999999892 17.999999999999943 2.9999999999999947
    vertex 2.165734258596785e-12 17.999999999999943 58.99999999999997
    vertex 9.999999999999892 17.999999999999943 58.99999999999997
  endloop
endfacet
facet normal 0.0 0.0 -1.0
  outer loop
    vertex 9.999999999999892 30.999999999999943 55.99999999999998
    vertex 2.165734258596785e-12 27.99999999999995 55.99999999999998
    vertex 2.165734258596785e-12 30.999999999999943 55.99999999999998
  endloop
endfacet
facet normal 0.0 0.0 -1.0
  outer loop
    vertex 2.165734258596785e-12 27.99999999999995 55.99999999999998
    vertex 9.999999999999892 30.999999999999943 55.99999999999998
    vertex 9.999999999999892 27.99999999999995 55.99999999999998
  endloop
endfacet
facet normal -1.0 9.65538670321884e-14 -1.0912275729692139e-14
  outer loop
    vertex 9.023892744153272e-13 14.99999999999995 55.9999999999999
    vertex 0.0 4.999999999999946 52.99999999999998
    vertex 0.0 4.999999999999946 55.9999999999999
  endloop
endfacet
facet normal -1.0 9.65538670321884e-14 -1.0912275729692139e-14
  outer loop
    vertex 0.0 4.999999999999946 52.99999999999998
    vertex 9.023892744153272e-13 14.99999999999995 55.9999999999999
    vertex 0.0 9.999999999999948 52.99999999999998
  endloop
endfacet
facet normal -1.0 9.65538670321884e-14 -1.0912275729692139e-14
  outer loop
    vertex 0.0 9.999999999999948 52.99999999999998
    vertex 9.023892744153272e-13 14.99999999999995 55.9999999999999
    vertex 0.0 10.6526309611002 52.95722430686903
  endloop
endfacet
facet normal -1.0 9.65538670321884e-14 -1.0912275729692139e-14
  outer loop
    vertex 0.0 10.6526309611002 52.95722430686903
    vertex 9.023892744153272e-13 14.99999999999995 55.9999999999999
    vertex 0.0 11.29409522551255 52.82962913144533
  endloop
endfacet
facet normal -1.0 9.65538670321884e-14 -1.0912275729692139e-14
  outer loop
    vertex 0.0 11.29409522551255 52.82962913144533
    vertex 9.023892744153272e-13 14.99999999999995 55.9999999999999
    vertex 0.0 11.913417161825397 52.619397662556416
  endloop
endfacet
facet normal -1.0 9.65538670321884e-14 -1.0912275729692139e-14
  outer loop
    vertex 0.0 11.913417161825397 52.619397662556416
    vertex 9.023892744153272e-13 14.99999999999995 55.9999999999999
    vertex 0.0 12.499999999999943 52.33012701892217
  endloop
endfacet
facet normal -1.0 9.65538670321884e-14 -1.0912275729692139e-14
  outer loop
    vertex 0.0 12.499999999999943 52.33012701892217
    vertex 9.023892744153272e-13 14.99999999999995 55.9999999999999
    vertex 0.0 13.04380714504355 51.96676670145615
  endloop
endfacet
facet normal -1.0 9.65538670321884e-14 -1.0912275729692139e-14
  outer loop
    vertex 0.0 13.04380714504355 51.96676670145615
    vertex 9.023892744153272e-13 14.99999999999995 55.9999999999999
    vertex 0.0 13.535533905932683 51.535533905932716
  endloop
endfacet
facet normal -1.0 9.65538670321884e-14 -1.0912275729692139e-14
  outer loop
    vertex 0.0 13.535533905932683 51.535533905932716
    vertex 9.023892744153272e-13 14.99999999999995 55.9999999999999
    vertex 0.0 13.966766701456121 51.04380714504358
  endloop
endfacet
facet normal -1.0 9.65538670321884e-14 -1.0912275729692139e-14
  outer loop
    vertex 0.0 13.966766701456121 51.04380714504358
    vertex 9.023892744153272e-13 14.99999999999995 55.9999999999999
    vertex 0.0 14.330127018922138 50.499999999999986
  endloop
endfacet
facet normal -1.0 9.65538670321884e-14 -1.0912275729692139e-14
  outer loop
    vertex 0.0 14.330127018922138 50.499999999999986
    vertex 9.023892744153272e-13 14.99999999999995 55.9999999999999
    vertex 0.0 14.619397662556386 49.91341716182543
  endloop
endfacet
facet normal -1.0 9.65538670321884e-14 -1.0912275729692139e-14
  outer loop
    vertex 0.0 14.619397662556386 49.91341716182543
    vertex 9.023892744153272e-13 14.99999999999995 55.9999999999999
    vertex 0.0 14.829629131445285 49.294095225512585
  endloop
endfacet
facet normal -1.0 9.65538670321884e-14 -1.0912275729692139e-14
  outer loop
    vertex 0.0 14.829629131445285 49.294095225512585
    vertex 9.023892744153272e-13 14.99999999999995 55.9999999999999
    vertex 0.0 14.957224306869 48.65263096110024
  endloop
endfacet
facet normal -1.0 9.65538670321884e-14 -1.0912275729692139e-14
  outer loop
    vertex 0.0 14.957224306869 48.65263096110024
    vertex 9.023892744153272e-13 14.99999999999995 55.9999999999999
    vertex 0.0 14.99999999999995 47.99999999999998
  endloop
endfacet
facet normal -1.0 9.65538670321884e-14 -1.0912275729692139e-14
  outer loop
    vertex 9.023892744153272e-13 14.99999999999995 61.999999999999964
    vertex 2.165734258596785e-12 17.999999999999943 58.99999999999997
    vertex 9.023892744153272e-13 14.99999999999995 55.9999999999999
  endloop
endfacet
facet normal -1.0 9.65538670321884e-14 -1.0912275729692139e-14
  outer loop
    vertex 2.165734258596785e-12 17.999999999999943 58.99999999999997
    vertex 9.023892744153272e-13 14.99999999999995 61.999999999999964
    vertex 2.165734258596785e-12 30.999999999999943 61.99999999999996
  endloop
endfacet
facet normal -1.0 9.65538670321884e-14 -1.0912275729692139e-14
  outer loop
    vertex 9.023892744153272e-13 14.99999999999995 55.9999999999999
    vertex 2.165734258596785e-12 17.999999999999943 58.99999999999997
    vertex 0.0 14.99999999999995 47.99999999999998
  endloop
endfacet
facet normal -1.0 9.65538670321884e-14 -1.0912275729692139e-14
  outer loop
    vertex 0.0 14.99999999999995 47.99999999999998
    vertex 2.165734258596785e-12 17.999999999999943 58.99999999999997
    vertex 2.165734258596785e-12 14.99999999999995 0.0
  endloop
endfacet
facet normal -1.0 9.65538670321884e-14 -1.0912275729692139e-14
  outer loop
    vertex 2.165734258596785e-12 17.999999999999943 58.99999999999997
    vertex 2.165734258596785e-12 30.999999999999943 61.99999999999996
    vertex 2.165734258596785e-12 27.99999999999995 58.99999999999997
  endloop
endfacet
facet normal -1.0 9.65538670321884e-14 -1.0912275729692139e-14
  outer loop
    vertex 2.165734258596785e-12 27.99999999999995 58.99999999999997
    vertex 2.165734258596785e-12 30.999999999999943 61.99999999999996
    vertex 2.165734258596785e-12 27.99999999999995 55.99999999999998
  endloop
endfacet
facet normal -1.0 9.65538670321884e-14 -1.0912275729692139e-14
  outer loop
    vertex 2.165734258596785e-12 27.99999999999995 55.99999999999998
    vertex 2.165734258596785e-12 30.999999999999943 61.99999999999996
    vertex 2.165734258596785e-12 30.999999999999943 55.99999999999998
  endloop
endfacet
facet normal -1.0 9.65538670321884e-14 -1.0912275729692139e-14
  outer loop
    vertex 2.165734258596785e-12 30.999999999999943 5.999999999999989
    vertex 2.165734258596785e-12 27.99999999999995 2.9999999999999947
    vertex 2.165734258596785e-12 27.99999999999995 5.999999999999989
  endloop
endfacet
facet normal -1.0 9.65538670321884e-14 -1.0912275729692139e-14
  outer loop
    vertex 2.165734258596785e-12 14.99999999999995 0.0
    vertex 2.165734258596785e-12 17.999999999999943 2.9999999999999947
    vertex 2.165734258596785e-12 30.999999999999943 0.0
  endloop
endfacet
facet normal -1.0 9.65538670321884e-14 -1.0912275729692139e-14
  outer loop
    vertex 2.165734258596785e-12 17.999999999999943 2.9999999999999947
    vertex 2.165734258596785e-12 14.99999999999995 0.0
    vertex 2.165734258596785e-12 17.999999999999943 58.99999999999997
  endloop
endfacet
facet normal -1.0 9.65538670321884e-14 -1.0912275729692139e-14
  outer loop
    vertex 2.165734258596785e-12 30.999999999999943 0.0
    vertex 2.165734258596785e-12 17.999999999999943 2.9999999999999947
    vertex 2.165734258596785e-12 27.99999999999995 2.9999999999999947
  endloop
endfacet
facet normal -1.0 9.65538670321884e-14 -1.0912275729692139e-14
  outer loop
    vertex 2.165734258596785e-12 30.999999999999943 0.0
    vertex 2.165734258596785e-12 27.99999999999995 2.9999999999999947
    vertex 2.165734258596785e-12 30.999999999999943 5.999999999999989
  endloop
endfacet
facet normal 0.0 0.0 -1.0
  outer loop
    vertex 9.999999999999892 27.99999999999995 58.99999999999997
    vertex 2.165734258596785e-12 17.999999999999943 58.99999999999997
    vertex 2.165734258596785e-12 27.99999999999995 58.99999999999997
  endloop
endfacet
facet normal 0.0 0.0 -1.0
  outer loop
    vertex 2.165734258596785e-12 17.999999999999943 58.99999999999997
    vertex 9.999999999999892 27.99999999999995 58.99999999999997
    vertex 9.999999999999892 17.999999999999943 58.99999999999997
  endloop
endfacet
facet normal -0.0 -1.0 -0.0
  outer loop
    vertex 9.999999999999892 27.99999999999995 58.99999999999997
    vertex 2.165734258596785e-12 27.99999999999995 55.99999999999998
    vertex 9.999999999999892 27.99999999999995 55.99999999999998
  endloop
endfacet
facet normal -0.0 -1.0 -0.0
  outer loop
    vertex 2.165734258596785e-12 27.99999999999995 55.99999999999998
    vertex 9.999999999999892 27.99999999999995 58.99999999999997
    vertex 2.165734258596785e-12 27.99999999999995 58.99999999999997
  endloop
endfacet
facet normal 0.0 1.0 0.0
  outer loop
    vertex 2.165734258596785e-12 30.999999999999943 61.99999999999996
    vertex 9.999999999999892 30.999999999999943 55.99999999999998
    vertex 2.165734258596785e-12 30.999999999999943 55.99999999999998
  endloop
endfacet
facet normal 0.0 1.0 0.0
  outer loop
    vertex 9.999999999999892 30.999999999999943 55.99999999999998
    vertex 2.165734258596785e-12 30.999999999999943 61.99999999999996
    vertex 9.999999999999892 30.999999999999943 61.99999999999996
  endloop
endfacet
facet normal 0.0 0.0 -1.0
  outer loop
    vertex 9.999999999999892 30.999999999999943 0.0
    vertex 2.165734258596785e-12 14.99999999999995 0.0
    vertex 2.165734258596785e-12 30.999999999999943 0.0
  endloop
endfacet
facet normal 0.0 0.0 -1.0
  outer loop
    vertex 2.165734258596785e-12 14.99999999999995 0.0
    vertex 9.999999999999892 30.999999999999943 0.0
    vertex 9.999999999999892 14.99999999999995 0.0
  endloop
endfacet
facet normal 0.0 -1.0 0.0
  outer loop
    vertex 9.999999999999892 14.99999999999995 47.99999999999998
    vertex 2.165734258596785e-12 14.99999999999995 0.0
    vertex 9.999999999999892 14.99999999999995 0.0
  endloop
endfacet
facet normal 0.0 -1.0 0.0
  outer loop
    vertex 2.165734258596785e-12 14.99999999999995 0.0
    vertex 9.999999999999892 14.99999999999995 47.99999999999998
    vertex 0.0 14.99999999999995 47.99999999999998
  endloop
endfacet
facet normal 0.0 0.0 1.0
  outer loop
    vertex 9.999999999999892 27.99999999999995 5.999999999999989
    vertex 2.165734258596785e-12 30.999999999999943 5.999999999999989
    vertex 2.165734258596785e-12 27.99999999999995 5.999999999999989
  endloop
endfacet
facet normal 0.0 0.0 1.0
  outer loop
    vertex 2.165734258596785e-12 30.999999999999943 5.999999999999989
    vertex 9.999999999999892 27.99999999999995 5.999999999999989
    vertex 9.999999999999892 30.999999999999943 5.999999999999989
  endloop
endfacet
facet normal 0.0 1.0 0.0
  outer loop
    vertex 2.165734258596785e-12 30.999999999999943 5.999999999999989
    vertex 9.999999999999892 30.999999999999943 0.0
    vertex 2.165734258596785e-12 30.999999999999943 0.0
  endloop
endfacet
facet normal 0.0 1.0 0.0
  outer loop
    vertex 9.999999999999892 30.999999999999943 0.0
    vertex 2.165734258596785e-12 30.999999999999943 5.999999999999989
    vertex 9.999999999999892 30.999999999999943 5.999999999999989
  endloop
endfacet
facet normal 0.0 0.0 1.0
  outer loop
    vertex 9.999999999999892 17.999999999999943 2.9999999999999947
    vertex 2.165734258596785e-12 27.99999999999995 2.9999999999999947
    vertex 2.165734258596785e-12 17.999999999999943 2.9999999999999947
  endloop
endfacet
facet normal 0.0 0.0 1.0
  outer loop
    vertex 2.165734258596785e-12 27.99999999999995 2.9999999999999947
    vertex 9.999999999999892 17.999999999999943 2.9999999999999947
    vertex 9.999999999999892 27.99999999999995 2.9999999999999947
  endloop
endfacet
facet normal -0.0 -1.0 -0.0
  outer loop
    vertex 9.999999999999892 27.99999999999995 5.999999999999989
    vertex 2.165734258596785e-12 27.99999999999995 2.9999999999999947
    vertex 9.999999999999892 27.99999999999995 2.9999999999999947
  endloop
endfacet
facet normal -0.0 -1.0 -0.0
  outer loop
    vertex 2.165734258596785e-12 27.99999999999995 2.9999999999999947
    vertex 9.999999999999892 27.99999999999995 5.999999999999989
    vertex 2.165734258596785e-12 27.99999999999995 5.999999999999989
  endloop
endfacet
facet normal 1.0 0.0 0.0
  outer loop
    vertex 9.999999999999892 9.999999999999948 52.99999999999998
    vertex 9.999999999999892 4.999999999999946 55.9999999999999
    vertex 9.999999999999892 4.999999999999946 52.99999999999998
  endloop
endfacet
facet normal 1.0 0.0 0.0
  outer loop
    vertex 9.999999999999892 4.999999999999946 55.9999999999999
    vertex 9.999999999999892 9.999999999999948 52.99999999999998
    vertex 9.999999999999892 14.99999999999995 55.9999999999999
  endloop
endfacet
facet normal 1.0 0.0 0.0
  outer loop
    vertex 9.999999999999892 14.99999999999995 55.9999999999999
    vertex 9.999999999999892 9.999999999999948 52.99999999999998
    vertex 9.999999999999892 10.6526309611002 52.95722430686903
  endloop
endfacet
facet normal 1.0 0.0 0.0
  outer loop
    vertex 9.999999999999892 14.99999999999995 55.9999999999999
    vertex 9.999999999999892 10.6526309611002 52.95722430686903
    vertex 9.999999999999892 11.29409522551255 52.82962913144533
  endloop
endfacet
facet normal 1.0 0.0 0.0
  outer loop
    vertex 9.999999999999892 14.99999999999995 55.9999999999999
    vertex 9.999999999999892 11.29409522551255 52.82962913144533
    vertex 9.999999999999892 11.913417161825397 52.619397662556416
  endloop
endfacet
facet normal 1.0 0.0 0.0
  outer loop
    vertex 9.999999999999892 14.99999999999995 55.9999999999999
    vertex 9.999999999999892 11.913417161825397 52.619397662556416
    vertex 9.999999999999892 12.499999999999943 52.33012701892217
  endloop
endfacet
facet normal 1.0 0.0 0.0
  outer loop
    vertex 9.999999999999892 14.99999999999995 55.9999999999999
    vertex 9.999999999999892 12.499999999999943 52.33012701892217
    vertex 9.999999999999892 13.04380714504355 51.96676670145615
  endloop
endfacet
facet normal 1.0 0.0 0.0
  outer loop
    vertex 9.999999999999892 14.99999999999995 55.9999999999999
    vertex 9.999999999999892 13.04380714504355 51.96676670145615
    vertex 9.999999999999892 13.535533905932683 51.535533905932716
  endloop
endfacet
facet normal 1.0 0.0 0.0
  outer loop
    vertex 9.999999999999892 14.99999999999995 55.9999999999999
    vertex 9.999999999999892 13.535533905932683 51.535533905932716
    vertex 9.999999999999892 13.966766701456121 51.04380714504358
  endloop
endfacet
facet normal 1.0 0.0 0.0
  outer loop
    vertex 9.999999999999892 14.99999999999995 55.9999999999999
    vertex 9.999999999999892 13.966766701456121 51.04380714504358
    vertex 9.999999999999892 14.330127018922138 50.499999999999986
  endloop
endfacet
facet normal 1.0 0.0 0.0
  outer loop
    vertex 9.999999999999892 14.99999999999995 55.9999999999999
    vertex 9.999999999999892 14.330127018922138 50.499999999999986
    vertex 9.999999999999892 14.619397662556386 49.91341716182543
  endloop
endfacet
facet normal 1.0 0.0 0.0
  outer loop
    vertex 9.999999999999892 14.99999999999995 55.9999999999999
    vertex 9.999999999999892 14.619397662556386 49.91341716182543
    vertex 9.999999999999892 14.829629131445285 49.294095225512585
  endloop
endfacet
facet normal 1.0 0.0 0.0
  outer loop
    vertex 9.999999999999892 14.99999999999995 55.9999999999999
    vertex 9.999999999999892 14.829629131445285 49.294095225512585
    vertex 9.999999999999892 14.957224306869 48.65263096110024
  endloop
endfacet
facet normal 1.0 0.0 0.0
  outer loop
    vertex 9.999999999999892 14.99999999999995 55.9999999999999
    vertex 9.999999999999892 14.957224306869 48.65263096110024
    vertex 9.999999999999892 14.99999999999995 47.99999999999998
  endloop
endfacet
facet normal 1.0 0.0 0.0
  outer loop
    vertex 9.999999999999892 14.99999999999995 0.0
    vertex 9.999999999999892 17.999999999999943 2.9999999999999947
    vertex 9.999999999999892 14.99999999999995 47.99999999999998
  endloop
endfacet
facet normal 1.0 0.0 0.0
  outer loop
    vertex 9.999999999999892 17.999999999999943 2.9999999999999947
    vertex 9.999999999999892 14.99999999999995 0.0
    vertex 9.999999999999892 30.999999999999943 0.0
  endloop
endfacet
facet normal 1.0 0.0 0.0
  outer loop
    vertex 9.999999999999892 14.99999999999995 47.99999999999998
    vertex 9.999999999999892 17.999999999999943 2.9999999999999947
    vertex 9.999999999999892 14.99999999999995 55.9999999999999
  endloop
endfacet
facet normal 1.0 0.0 0.0
  outer loop
    vertex 9.999999999999892 14.99999999999995 55.9999999999999
    vertex 9.999999999999892 17.999999999999943 2.9999999999999947
    vertex 9.999999999999892 14.99999999999995 61.999999999999964
  endloop
endfacet
facet normal 1.0 0.0 0.0
  outer loop
    vertex 9.999999999999892 17.999999999999943 2.9999999999999947
    vertex 9.999999999999892 30.999999999999943 0.0
    vertex 9.999999999999892 27.99999999999995 2.9999999999999947
  endloop
endfacet
facet normal 1.0 0.0 0.0
  outer loop
    vertex 9.999999999999892 27.99999999999995 2.9999999999999947
    vertex 9.999999999999892 30.999999999999943 0.0
    vertex 9.999999999999892 27.99999999999995 5.999999999999989
  endloop
endfacet
facet normal 1.0 0.0 0.0
  outer loop
    vertex 9.999999999999892 27.99999999999995 5.999999999999989
    vertex 9.999999999999892 30.999999999999943 0.0
    vertex 9.999999999999892 30.999999999999943 5.999999999999989
  endloop
endfacet
facet normal 1.0 0.0 0.0
  outer loop
    vertex 9.999999999999892 30.999999999999943 55.99999999999998
    vertex 9.999999999999892 27.99999999999995 58.99999999999997
    vertex 9.999999999999892 27.99999999999995 55.99999999999998
  endloop
endfacet
facet normal 1.0 0.0 0.0
  outer loop
    vertex 9.999999999999892 14.99999999999995 61.999999999999964
    vertex 9.999999999999892 17.999999999999943 58.99999999999997
    vertex 9.999999999999892 30.999999999999943 61.99999999999996
  endloop
endfacet
facet normal 1.0 0.0 0.0
  outer loop
    vertex 9.999999999999892 17.999999999999943 58.99999999999997
    vertex 9.999999999999892 14.99999999999995 61.999999999999964
    vertex 9.999999999999892 17.999999999999943 2.9999999999999947
  endloop
endfacet
facet normal 1.0 0.0 0.0
  outer loop
    vertex 9.999999999999892 30.999999999999943 61.99999999999996
    vertex 9.999999999999892 17.999999999999943 58.99999999999997
    vertex 9.999999999999892 27.99999999999995 58.99999999999997
  endloop
endfacet
facet normal 1.0 0.0 0.0
  outer loop
    vertex 9.999999999999892 30.999999999999943 61.99999999999996
    vertex 9.999999999999892 27.99999999999995 58.99999999999997
    vertex 9.999999999999892 30.999999999999943 55.99999999999998
  endloop
endfacet
facet normal -1.1431303258943127e-32 7.049916206369747e-16 1.0
  outer loop
    vertex 9.999999999999892 14.99999999999995 61.999999999999964
    vertex 2.165734258596785e-12 30.999999999999943 61.99999999999996
    vertex 9.023892744153272e-13 14.99999999999995 61.999999999999964
  endloop
endfacet
facet normal -1.1431303258943127e-32 7.049916206369747e-16 1.0
  outer loop
    vertex 2.165734258596785e-12 30.999999999999943 61.99999999999996
    vertex 9.999999999999892 14.99999999999995 61.999999999999964
    vertex 9.999999999999892 30.999999999999943 61.99999999999996
  endloop
endfacet
facet normal 0.0 0.0 1.0
  outer loop
    vertex 2.499999999999973 0.6698729810778006 55.9999999999999
    vertex 3.0681483474216886 4.482361909794878 55.9999999999999
    vertex 2.9999999999998592 4.999999999999946 55.9999999999999
  endloop
endfacet
facet normal 0.0 0.0 1.0
  outer loop
    vertex 3.0681483474216886 4.482361909794878 55.9999999999999
    vertex 2.499999999999973 0.6698729810778006 55.9999999999999
    vertex 3.7059047744872755 0.1703708685546531 55.9999999999999
  endloop
endfacet
facet normal 0.0 0.0 1.0
  outer loop
    vertex 3.0681483474216886 4.482361909794878 55.9999999999999
    vertex 3.7059047744872755 0.1703708685546531 55.9999999999999
    vertex 3.2679491924309882 3.9999999999999023 55.9999999999999
  endloop
endfacet
facet normal 0.0 0.0 1.0
  outer loop
    vertex 3.2679491924309882 3.9999999999999023 55.9999999999999
    vertex 3.7059047744872755 0.1703708685546531 55.9999999999999
    vertex 3.5857864376267568 3.585786437626791 55.9999999999999
  endloop
endfacet
facet normal 0.0 0.0 1.0
  outer loop
    vertex 3.5857864376267568 3.585786437626791 55.9999999999999
    vertex 3.7059047744872755 0.1703708685546531 55.9999999999999
    vertex 3.9999999999999925 3.2679491924309882 55.9999999999999
  endloop
endfacet
facet normal 0.0 0.0 1.0
  outer loop
    vertex 3.9999999999999925 3.2679491924309882 55.9999999999999
    vertex 3.7059047744872755 0.1703708685546531 55.9999999999999
    vertex 4.999999999999946 0.0 55.9999999999999
  endloop
endfacet
facet normal 0.0 0.0 1.0
  outer loop
    vertex 3.9999999999999925 3.2679491924309882 55.9999999999999
    vertex 4.999999999999946 0.0 55.9999999999999
    vertex 4.482361909794878 3.068148347421723 55.9999999999999
  endloop
endfacet
facet normal 0.0 0.0 1.0
  outer loop
    vertex 4.482361909794878 3.068148347421723 55.9999999999999
    vertex 4.999999999999946 0.0 55.9999999999999
    vertex 4.999999999999946 2.9999999999998592 55.9999999999999
  endloop
endfacet
facet normal 0.0 0.0 1.0
  outer loop
    vertex 4.999999999999946 2.9999999999998592 55.9999999999999
    vertex 4.999999999999946 0.0 55.9999999999999
    vertex 6.294095225512616 0.1703708685546531 55.9999999999999
  endloop
endfacet
facet normal 0.0 0.0 1.0
  outer loop
    vertex 4.999999999999946 2.9999999999998592 55.9999999999999
    vertex 6.294095225512616 0.1703708685546531 55.9999999999999
    vertex 5.517638090205014 3.068148347421723 55.9999999999999
  endloop
endfacet
facet normal 0.0 0.0 1.0
  outer loop
    vertex 5.517638090205014 3.068148347421723 55.9999999999999
    vertex 6.294095225512616 0.1703708685546531 55.9999999999999
    vertex 6.000000000000079 3.2679491924309882 55.9999999999999
  endloop
endfacet
facet normal 0.0 0.0 1.0
  outer loop
    vertex 6.000000000000079 3.2679491924309882 55.9999999999999
    vertex 6.294095225512616 0.1703708685546531 55.9999999999999
    vertex 6.414213562373135 3.585786437626791 55.9999999999999
  endloop
endfacet
facet normal 0.0 0.0 1.0
  outer loop
    vertex 6.414213562373135 3.585786437626791 55.9999999999999
    vertex 6.294095225512616 0.1703708685546531 55.9999999999999
    vertex 7.499999999999918 0.6698729810778006 55.9999999999999
  endloop
endfacet
facet normal 0.0 0.0 1.0
  outer loop
    vertex 6.414213562373135 3.585786437626791 55.9999999999999
    vertex 7.499999999999918 0.6698729810778006 55.9999999999999
    vertex 6.732050807568903 3.9999999999999023 55.9999999999999
  endloop
endfacet
facet normal 0.0 0.0 1.0
  outer loop
    vertex 6.732050807568903 3.9999999999999023 55.9999999999999
    vertex 7.499999999999918 0.6698729810778006 55.9999999999999
    vertex 6.931851652578203 4.482361909794878 55.9999999999999
  endloop
endfacet
facet normal 0.0 0.0 1.0
  outer loop
    vertex 6.931851652578203 4.482361909794878 55.9999999999999
    vertex 7.499999999999918 0.6698729810778006 55.9999999999999
    vertex 7.000000000000032 4.999999999999946 55.9999999999999
  endloop
endfacet
facet normal 0.0 0.0 1.0
  outer loop
    vertex 7.000000000000032 4.999999999999946 55.9999999999999
    vertex 7.499999999999918 0.6698729810778006 55.9999999999999
    vertex 7.000000000000032 6.999999999999942 55.9999999999999
  endloop
endfacet
facet normal 0.0 0.0 1.0
  outer loop
    vertex 0.1703708685546644 3.7059047744873546 55.9999999999999
    vertex 9.023892744153272e-13 14.99999999999995 55.9999999999999
    vertex 0.0 4.999999999999946 55.9999999999999
  endloop
endfacet
facet normal 0.0 0.0 1.0
  outer loop
    vertex 9.023892744153272e-13 14.99999999999995 55.9999999999999
    vertex 0.1703708685546644 3.7059047744873546 55.9999999999999
    vertex 3.2679491924309882 7.999999999999985 55.9999999999999
  endloop
endfacet
facet normal 0.0 0.0 1.0
  outer loop
    vertex 9.023892744153272e-13 14.99999999999995 55.9999999999999
    vertex 3.2679491924309882 7.999999999999985 55.9999999999999
    vertex 3.5857864376267568 8.414213562373098 55.9999999999999
  endloop
endfacet
facet normal 0.0 0.0 1.0
  outer loop
    vertex 9.023892744153272e-13 14.99999999999995 55.9999999999999
    vertex 3.5857864376267568 8.414213562373098 55.9999999999999
    vertex 9.999999999999892 14.99999999999995 55.9999999999999
  endloop
endfacet
facet normal 0.0 0.0 1.0
  outer loop
    vertex 3.2679491924309882 7.999999999999985 55.9999999999999
    vertex 0.1703708685546644 3.7059047744873546 55.9999999999999
    vertex 0.6698729810778232 2.499999999999973 55.9999999999999
  endloop
endfacet
facet normal 0.0 0.0 1.0
  outer loop
    vertex 3.2679491924309882 7.999999999999985 55.9999999999999
    vertex 0.6698729810778232 2.499999999999973 55.9999999999999
    vertex 3.0681483474216886 7.51763809020501 55.9999999999999
  endloop
endfacet
facet normal 0.0 0.0 1.0
  outer loop
    vertex 3.0681483474216886 7.51763809020501 55.9999999999999
    vertex 0.6698729810778232 2.499999999999973 55.9999999999999
    vertex 1.4644660940673346 1.4644660940672445 55.9999999999999
  endloop
endfacet
facet normal 0.0 0.0 1.0
  outer loop
    vertex 3.0681483474216886 7.51763809020501 55.9999999999999
    vertex 1.4644660940673346 1.4644660940672445 55.9999999999999
    vertex 2.9999999999998592 6.999999999999942 55.9999999999999
  endloop
endfacet
facet normal 0.0 0.0 1.0
  outer loop
    vertex 2.9999999999998592 6.999999999999942 55.9999999999999
    vertex 1.4644660940673346 1.4644660940672445 55.9999999999999
    vertex 2.499999999999973 0.6698729810778006 55.9999999999999
  endloop
endfacet
facet normal 0.0 0.0 1.0
  outer loop
    vertex 2.9999999999998592 6.999999999999942 55.9999999999999
    vertex 2.499999999999973 0.6698729810778006 55.9999999999999
    vertex 2.9999999999998592 4.999999999999946 55.9999999999999
  endloop
endfacet
facet normal 0.0 0.0 1.0
  outer loop
    vertex 9.999999999999892 14.99999999999995 55.9999999999999
    vertex 3.5857864376267568 8.414213562373098 55.9999999999999
    vertex 3.999999999999812 8.7320508075689 55.9999999999999
  endloop
endfacet
facet normal 0.0 0.0 1.0
  outer loop
    vertex 9.999999999999892 14.99999999999995 55.9999999999999
    vertex 3.999999999999812 8.7320508075689 55.9999999999999
    vertex 4.482361909794878 8.931851652578166 55.9999999999999
  endloop
endfacet
facet normal 0.0 0.0 1.0
  outer loop
    vertex 9.999999999999892 14.99999999999995 55.9999999999999
    vertex 4.482361909794878 8.931851652578166 55.9999999999999
    vertex 4.999999999999946 9.000000000000028 55.9999999999999
  endloop
endfacet
facet normal 0.0 0.0 1.0
  outer loop
    vertex 9.999999999999892 14.99999999999995 55.9999999999999
    vertex 4.999999999999946 9.000000000000028 55.9999999999999
    vertex 5.517638090205014 8.931851652578166 55.9999999999999
  endloop
endfacet
facet normal 0.0 0.0 1.0
  outer loop
    vertex 9.999999999999892 14.99999999999995 55.9999999999999
    vertex 5.517638090205014 8.931851652578166 55.9999999999999
    vertex 5.999999999999899 8.7320508075689 55.9999999999999
  endloop
endfacet
facet normal 0.0 0.0 1.0
  outer loop
    vertex 9.999999999999892 14.99999999999995 55.9999999999999
    vertex 5.999999999999899 8.7320508075689 55.9999999999999
    vertex 6.414213562373135 8.414213562373098 55.9999999999999
  endloop
endfacet
facet normal 0.0 0.0 1.0
  outer loop
    vertex 9.999999999999892 14.99999999999995 55.9999999999999
    vertex 6.414213562373135 8.414213562373098 55.9999999999999
    vertex 6.732050807568903 7.999999999999985 55.9999999999999
  endloop
endfacet
facet normal 0.0 0.0 1.0
  outer loop
    vertex 9.999999999999892 14.99999999999995 55.9999999999999
    vertex 6.732050807568903 7.999999999999985 55.9999999999999
    vertex 6.931851652578203 7.51763809020501 55.9999999999999
  endloop
endfacet
facet normal 0.0 0.0 1.0
  outer loop
    vertex 9.999999999999892 14.99999999999995 55.9999999999999
    vertex 6.931851652578203 7.51763809020501 55.9999999999999
    vertex 7.000000000000032 6.999999999999942 55.9999999999999
  endloop
endfacet
facet normal 0.0 0.0 1.0
  outer loop
    vertex 9.999999999999892 14.99999999999995 55.9999999999999
    vertex 7.000000000000032 6.999999999999942 55.9999999999999
    vertex 7.499999999999918 0.6698729810778006 55.9999999999999
  endloop
endfacet
facet normal 0.0 0.0 1.0
  outer loop
    vertex 9.999999999999892 14.99999999999995 55.9999999999999
    vertex 7.499999999999918 0.6698729810778006 55.9999999999999
    vertex 8.535533905932557 1.4644660940672445 55.9999999999999
  endloop
endfacet
facet normal 0.0 0.0 1.0
  outer loop
    vertex 9.999999999999892 14.99999999999995 55.9999999999999
    vertex 8.535533905932557 1.4644660940672445 55.9999999999999
    vertex 9.330127018922068 2.499999999999973 55.9999999999999
  endloop
endfacet
facet normal 0.0 0.0 1.0
  outer loop
    vertex 9.999999999999892 14.99999999999995 55.9999999999999
    vertex 9.330127018922068 2.499999999999973 55.9999999999999
    vertex 9.829629131445227 3.7059047744873546 55.9999999999999
  endloop
endfacet
facet normal 0.0 0.0 1.0
  outer loop
    vertex 9.999999999999892 14.99999999999995 55.9999999999999
    vertex 9.829629131445227 3.7059047744873546 55.9999999999999
    vertex 9.999999999999892 4.999999999999946 55.9999999999999
  endloop
endfacet
facet normal -0.0 -1.0 -0.0
  outer loop
    vertex 9.999999999999892 14.99999999999995 61.999999999999964
    vertex 9.023892744153272e-13 14.99999999999995 55.9999999999999
    vertex 9.999999999999892 14.99999999999995 55.9999999999999
  endloop
endfacet
facet normal -0.0 -1.0 -0.0
  outer loop
    vertex 9.023892744153272e-13 14.99999999999995 55.9999999999999
    vertex 9.999999999999892 14.99999999999995 61.999999999999964
    vertex 9.023892744153272e-13 14.99999999999995 61.999999999999964
  endloop
endfacet
facet normal 0.0 -0.9978589232386034 -0.06540312923014675
  outer loop
    vertex 9.999999999999892 14.957224306869 48.65263096110024
    vertex 0.0 14.99999999999995 47.99999999999998
    vertex 9.999999999999892 14.99999999999995 47.99999999999998
  endloop
endfacet
facet normal 0.0 -0.9978589232386034 -0.06540312923014675
  outer loop
    vertex 0.0 14.99999999999995 47.99999999999998
    vertex 9.999999999999892 14.957224306869 48.65263096110024
    vertex 0.0 14.957224306869 48.65263096110024
  endloop
endfacet
facet normal 0.0 -0.06540312923014789 -0.9978589232386034
  outer loop
    vertex 9.999999999999892 10.6526309611002 52.95722430686903
    vertex 0.0 9.999999999999948 52.99999999999998
    vertex 0.0 10.6526309611002 52.95722430686903
  endloop
endfacet
facet normal 0.0 -0.06540312923014789 -0.9978589232386034
  outer loop
    vertex 0.0 9.999999999999948 52.99999999999998
    vertex 9.999999999999892 10.6526309611002 52.95722430686903
    vertex 9.999999999999892 9.999999999999948 52.99999999999998
  endloop
endfacet
facet normal -0.0 -0.19509032201611512 -0.9807852804032331
  outer loop
    vertex 9.999999999999892 11.29409522551255 52.82962913144533
    vertex 0.0 10.6526309611002 52.95722430686903
    vertex 0.0 11.29409522551255 52.82962913144533
  endloop
endfacet
facet normal -0.0 -0.19509032201611512 -0.9807852804032331
  outer loop
    vertex 0.0 10.6526309611002 52.95722430686903
    vertex 9.999999999999892 11.29409522551255 52.82962913144533
    vertex 9.999999999999892 10.6526309611002 52.95722430686903
  endloop
endfacet
facet normal -0.0 -0.32143946530316453 -0.9469301294951047
  outer loop
    vertex 9.999999999999892 11.913417161825397 52.619397662556416
    vertex 0.0 11.29409522551255 52.82962913144533
    vertex 0.0 11.913417161825397 52.619397662556416
  endloop
endfacet
facet normal -0.0 -0.32143946530316453 -0.9469301294951047
  outer loop
    vertex 0.0 11.29409522551255 52.82962913144533
    vertex 9.999999999999892 11.913417161825397 52.619397662556416
    vertex 9.999999999999892 11.29409522551255 52.82962913144533
  endloop
endfacet
facet normal -0.0 -0.4422886902190139 -0.8968727415326821
  outer loop
    vertex 9.999999999999892 12.499999999999943 52.33012701892217
    vertex 0.0 11.913417161825397 52.619397662556416
    vertex 0.0 12.499999999999943 52.33012701892217
  endloop
endfacet
facet normal -0.0 -0.4422886902190139 -0.8968727415326821
  outer loop
    vertex 0.0 11.913417161825397 52.619397662556416
    vertex 9.999999999999892 12.499999999999943 52.33012701892217
    vertex 9.999999999999892 11.913417161825397 52.619397662556416
  endloop
endfacet
facet normal -0.0 -0.5555702330195982 -0.8314696123025479
  outer loop
    vertex 9.999999999999892 13.04380714504355 51.96676670145615
    vertex 0.0 12.499999999999943 52.33012701892217
    vertex 0.0 13.04380714504355 51.96676670145615
  endloop
endfacet
facet normal -0.0 -0.5555702330195982 -0.8314696123025479
  outer loop
    vertex 0.0 12.499999999999943 52.33012701892217
    vertex 9.999999999999892 13.04380714504355 51.96676670145615
    vertex 9.999999999999892 12.499999999999943 52.33012701892217
  endloop
endfacet
facet normal -0.0 -0.6593458151000708 -0.7518398074789759
  outer loop
    vertex 9.999999999999892 13.535533905932683 51.535533905932716
    vertex 0.0 13.04380714504355 51.96676670145615
    vertex 0.0 13.535533905932683 51.535533905932716
  endloop
endfacet
facet normal -0.0 -0.6593458151000708 -0.7518398074789759
  outer loop
    vertex 0.0 13.04380714504355 51.96676670145615
    vertex 9.999999999999892 13.535533905932683 51.535533905932716
    vertex 9.999999999999892 13.04380714504355 51.96676670145615
  endloop
endfacet
facet normal -0.0 -0.7518398074789759 -0.6593458151000708
  outer loop
    vertex 9.999999999999892 13.535533905932683 51.535533905932716
    vertex 0.0 13.966766701456121 51.04380714504358
    vertex 9.999999999999892 13.966766701456121 51.04380714504358
  endloop
endfacet
facet normal -0.0 -0.7518398074789759 -0.6593458151000708
  outer loop
    vertex 0.0 13.966766701456121 51.04380714504358
    vertex 9.999999999999892 13.535533905932683 51.535533905932716
    vertex 0.0 13.535533905932683 51.535533905932716
  endloop
endfacet
facet normal -0.0 -0.8314696123025427 -0.5555702330196063
  outer loop
    vertex 9.999999999999892 13.966766701456121 51.04380714504358
    vertex 0.0 14.330127018922138 50.499999999999986
    vertex 9.999999999999892 14.330127018922138 50.499999999999986
  endloop
endfacet
facet normal -0.0 -0.8314696123025427 -0.5555702330196063
  outer loop
    vertex 0.0 14.330127018922138 50.499999999999986
    vertex 9.999999999999892 13.966766701456121 51.04380714504358
    vertex 0.0 13.966766701456121 51.04380714504358
  endloop
endfacet
facet normal -0.0 -0.8968727415326856 -0.44228869021900713
  outer loop
    vertex 9.999999999999892 14.330127018922138 50.499999999999986
    vertex 0.0 14.619397662556386 49.91341716182543
    vertex 9.999999999999892 14.619397662556386 49.91341716182543
  endloop
endfacet
facet normal -0.0 -0.8968727415326856 -0.44228869021900713
  outer loop
    vertex 0.0 14.619397662556386 49.91341716182543
    vertex 9.999999999999892 14.330127018922138 50.499999999999986
    vertex 0.0 14.330127018922138 50.499999999999986
  endloop
endfacet
facet normal -0.0 -0.9469301294951101 -0.3214394653031491
  outer loop
    vertex 9.999999999999892 14.619397662556386 49.91341716182543
    vertex 0.0 14.829629131445285 49.294095225512585
    vertex 9.999999999999892 14.829629131445285 49.294095225512585
  endloop
endfacet
facet normal -0.0 -0.9469301294951101 -0.3214394653031491
  outer loop
    vertex 0.0 14.829629131445285 49.294095225512585
    vertex 9.999999999999892 14.619397662556386 49.91341716182543
    vertex 0.0 14.619397662556386 49.91341716182543
  endloop
endfacet
facet normal -0.0 -0.9807852804032291 -0.19509032201613502
  outer loop
    vertex 9.999999999999892 14.829629131445285 49.294095225512585
    vertex 0.0 14.957224306869 48.65263096110024
    vertex 9.999999999999892 14.957224306869 48.65263096110024
  endloop
endfacet
facet normal -0.0 -0.9807852804032291 -0.19509032201613502
  outer loop
    vertex 0.0 14.957224306869 48.65263096110024
    vertex 9.999999999999892 14.829629131445285 49.294095225512585
    vertex 0.0 14.829629131445285 49.294095225512585
  endloop
endfacet
endsolid Untitled-5ec37126
